<?xml version="1.0" standalone="no"?>
<!DOCTYPE svg PUBLIC "-//W3C//DTD SVG 20010904//EN"
 "http://www.w3.org/TR/2001/REC-SVG-20010904/DTD/svg10.dtd">
<svg version="1.0" xmlns="http://www.w3.org/2000/svg"
 width="564.000000pt" height="564.000000pt" viewBox="0 0 564.000000 564.000000"
 preserveAspectRatio="xMidYMid meet">
<metadata>
Created by potrace 1.14, written by Peter Selinger 2001-2017
</metadata>
<g transform="translate(0.000000,564.000000) scale(0.100000,-0.100000)"
fill="#000000" stroke="none">
<path d="M0 3944 l0 -1697 40 6 c27 3 40 1 40 -6 0 -9 2 -9 8 -1 4 6 28 19 54
29 l47 17 94 187 94 186 22 155 c43 294 50 370 33 370 -4 0 -33 -24 -64 -53
-47 -43 -138 -105 -138 -93 0 2 10 14 21 27 81 91 184 273 209 368 12 46 16
613 6 715 -3 28 -8 83 -11 123 l-5 71 47 63 c53 73 141 161 152 155 4 -3 18 8
29 24 25 33 214 161 310 209 95 48 260 116 324 135 69 20 122 20 252 1 55 -8
209 -28 341 -45 132 -16 263 -34 290 -39 130 -24 728 -153 794 -171 95 -27
338 -90 371 -96 42 -8 302 -95 355 -119 28 -12 75 -32 105 -45 82 -34 655
-319 815 -406 77 -42 156 -85 176 -95 34 -17 38 -23 49 -86 15 -85 15 -345 0
-438 -6 -39 -20 -100 -31 -137 -20 -69 -67 -183 -73 -177 -2 2 1 38 6 79 21
185 25 273 17 396 -5 72 -13 144 -19 160 -11 28 -13 25 -51 -76 -22 -58 -58
-143 -80 -190 -23 -47 -41 -98 -40 -115 1 -33 26 -134 65 -268 14 -48 26 -90
26 -93 0 -3 7 -4 15 0 12 4 14 0 9 -18 -7 -28 5 -74 58 -223 l40 -113 39 0
c32 0 37 -3 32 -17 -4 -10 -2 -14 4 -10 6 4 13 0 17 -8 7 -19 26 -19 26 0 0
12 13 15 58 15 32 0 52 4 44 8 -9 6 -5 12 13 22 16 8 21 16 14 20 -6 4 10 13
36 21 35 10 47 20 53 39 4 14 7 124 7 245 0 206 -2 227 -28 328 -29 115 -97
305 -171 477 -25 57 -43 106 -42 108 2 2 40 -15 84 -37 97 -49 98 -49 151
-262 65 -259 75 -342 76 -616 l0 -242 65 4 c39 2 91 14 130 30 36 15 88 33
115 42 28 8 62 22 78 29 l27 15 0 -79 0 -79 -29 -1 c-16 0 -62 -17 -102 -36
-51 -25 -88 -36 -119 -36 -33 0 -41 -3 -30 -10 11 -7 5 -8 -19 -3 -25 4 -32 3
-27 -5 5 -8 0 -12 -14 -12 -12 0 -25 -10 -32 -25 -6 -14 -16 -25 -22 -25 -6 0
-5 -4 3 -9 10 -6 3 -12 -25 -21 -44 -15 -50 -21 -64 -70 -5 -19 -23 -57 -40
-83 -40 -64 -74 -65 -136 -3 -25 24 -44 53 -44 65 0 12 -6 21 -15 21 -26 0
-17 -30 56 -179 227 -466 266 -678 164 -888 -93 -189 -319 -344 -530 -362 -69
-6 -70 -6 -73 -36 -5 -55 -27 -143 -79 -310 l-25 -80 47 -41 c141 -125 322
-147 429 -53 55 49 120 173 140 269 l14 65 17 -40 c14 -33 16 -63 13 -185 -4
-125 -8 -155 -31 -219 -15 -41 -39 -95 -54 -120 -37 -63 -125 -154 -196 -202
l-59 -39 446 0 446 0 0 2820 0 2820 -403 0 -402 0 -13 -41 c-7 -23 -12 -42
-10 -43 2 -1 44 -20 93 -42 118 -53 127 -68 149 -262 14 -122 22 -322 13 -322
-1 0 -40 16 -86 35 -170 72 -519 199 -621 225 -112 30 -345 98 -445 130 -33
11 -114 31 -180 45 -66 15 -196 44 -290 65 -197 45 -293 60 -575 95 -318 38
-411 44 -910 56 -364 10 -504 9 -645 0 -99 -7 -268 -16 -375 -21 -107 -5 -238
-13 -290 -19 -52 -6 -162 -18 -245 -26 -82 -9 -161 -18 -175 -21 -84 -13 -140
-16 -140 -6 0 23 119 89 230 128 l65 23 -192 0 -193 1 0 -1696z m5510 1636 c0
-19 -38 -84 -66 -114 -28 -29 -92 -62 -102 -51 -3 3 12 24 34 46 21 23 57 61
79 84 41 44 55 53 55 35z"/>
<path d="M395 5624 c-19 -15 -19 -15 8 -8 52 12 250 9 305 -5 29 -7 55 -11 58
-8 3 2 -24 12 -60 21 -87 22 -283 22 -311 0z"/>
<path d="M875 5630 c-3 -6 1 -7 9 -4 18 7 21 14 7 14 -6 0 -13 -4 -16 -10z"/>
<path d="M4615 5622 c33 -8 62 -19 63 -24 2 -4 9 -8 15 -8 6 0 0 11 -13 25
-19 21 -32 25 -74 24 l-51 -1 60 -16z"/>
<path d="M820 5580 c20 -13 43 -13 35 0 -3 6 -16 10 -28 10 -18 0 -19 -2 -7
-10z"/>
<path d="M3613 4053 c9 -2 25 -2 35 0 9 3 1 5 -18 5 -19 0 -27 -2 -17 -5z"/>
<path d="M3354 3968 l-29 -33 33 29 c30 28 37 36 29 36 -2 0 -16 -15 -33 -32z"/>
<path d="M2487 3969 c7 -7 15 -10 18 -7 3 3 -2 9 -12 12 -14 6 -15 5 -6 -5z"/>
<path d="M3620 3970 c-108 -14 -248 -66 -280 -104 -11 -14 -10 -16 4 -10 20 8
20 10 -3 -56 -11 -30 -17 -57 -14 -60 2 -3 16 8 30 25 l26 30 -9 -40 c-15 -68
-10 -196 10 -235 26 -50 85 -108 117 -115 16 -4 53 -1 83 5 44 9 62 19 94 54
55 60 70 93 82 179 12 83 2 154 -21 148 -72 -21 -139 -4 -139 35 0 29 27 44
79 44 39 0 53 11 31 25 -18 11 -11 25 13 25 66 -1 154 -68 217 -166 51 -78 53
-106 10 -169 -17 -25 -27 -45 -22 -45 13 0 142 147 142 162 0 8 -13 35 -30 61
-37 59 -37 63 -2 39 42 -29 52 -34 52 -25 0 5 -52 44 -115 88 -63 44 -115 83
-115 88 0 4 8 8 18 8 9 1 -3 5 -28 10 -54 9 -155 9 -230 -1z m-50 -139 c0 -6
-4 -13 -10 -16 -5 -3 -10 1 -10 9 0 9 5 16 10 16 6 0 10 -4 10 -9z m46 -221
c4 -27 9 -49 13 -48 14 3 41 -15 41 -27 0 -6 -9 -23 -21 -36 -11 -13 -24 -30
-29 -38 -4 -8 -30 -16 -59 -19 -43 -4 -58 -1 -82 17 -16 12 -33 20 -38 17 -13
-8 -34 22 -27 39 3 8 14 15 24 15 16 0 18 5 13 43 -7 45 -4 77 7 77 4 0 16
-16 27 -35 26 -49 62 -46 90 7 11 21 23 38 27 38 4 0 10 -22 14 -50z"/>
<path d="M3910 3950 c0 -5 12 -10 28 -10 21 0 24 2 12 10 -20 13 -40 13 -40 0z"/>
<path d="M2120 3930 c-162 -17 -321 -54 -423 -100 -22 -10 -35 -20 -30 -23 5
-3 38 7 73 23 36 16 79 32 95 35 28 7 29 6 10 -8 -60 -44 -217 -129 -290 -157
-14 -5 -25 -14 -25 -20 0 -5 25 1 56 15 31 14 58 25 60 25 1 0 -22 -24 -52
-54 -63 -64 -69 -84 -21 -78 26 3 44 -5 97 -46 101 -76 139 -93 97 -42 -14 16
-37 54 -52 85 -31 63 -31 64 44 119 51 38 192 111 234 121 l26 7 -21 -57 c-25
-71 -22 -220 5 -272 63 -119 217 -190 297 -136 95 62 120 121 120 276 l0 98
-52 -6 c-68 -8 -108 6 -108 39 0 32 19 46 67 48 49 2 114 -29 200 -93 35 -27
63 -47 63 -45 0 2 -11 24 -25 47 -32 56 -31 65 1 44 52 -34 32 -7 -26 36 -33
24 -60 47 -60 51 0 4 18 1 40 -7 23 -8 38 -11 36 -6 -3 5 -27 14 -53 21 -27 7
-73 24 -103 38 -61 29 -152 36 -280 22z m112 -135 c0 -5 -5 -11 -11 -13 -6 -2
-11 4 -11 13 0 9 5 15 11 13 6 -2 11 -8 11 -13z m78 -220 c1 -32 20 -65 39
-65 36 0 -31 -106 -77 -121 -54 -18 -127 6 -162 53 -17 23 -19 30 -7 25 12 -4
14 -2 10 10 -4 11 -3 14 5 9 9 -6 11 10 6 63 -7 72 -2 85 22 54 7 -10 16 -18
21 -19 4 0 16 -4 25 -8 29 -13 52 -2 73 36 19 37 20 37 32 15 7 -12 13 -35 13
-52z m-222 -67 c14 -14 -2 -48 -23 -48 -19 0 -27 16 -20 40 7 22 25 26 43 8z"/>
<path d="M4136 3593 c-6 -14 -5 -15 5 -6 7 7 10 15 7 18 -3 3 -9 -2 -12 -12z"/>
<path d="M1857 3409 c7 -7 15 -10 18 -7 3 3 -2 9 -12 12 -14 6 -15 5 -6 -5z"/>
<path d="M4021 3284 c0 -11 3 -14 6 -6 3 7 2 16 -1 19 -3 4 -6 -2 -5 -13z"/>
<path d="M4007 3216 c-4 -27 -6 -65 -6 -85 1 -20 6 -2 10 39 10 84 6 122 -4
46z"/>
<path d="M3092 3140 c0 -19 2 -27 5 -17 2 9 2 25 0 35 -3 9 -5 1 -5 -18z"/>
<path d="M3982 2940 c0 -14 2 -19 5 -12 2 6 2 18 0 25 -3 6 -5 1 -5 -13z"/>
<path d="M3926 2735 c-9 -26 -7 -32 5 -12 6 10 9 21 6 23 -2 3 -7 -2 -11 -11z"/>
<path d="M5410 2729 c0 -5 5 -7 10 -4 6 3 10 8 10 11 0 2 -4 4 -10 4 -5 0 -10
-5 -10 -11z"/>
<path d="M5300 2700 c0 -5 5 -10 10 -10 6 0 10 5 10 10 0 6 -4 10 -10 10 -5 0
-10 -4 -10 -10z"/>
<path d="M3883 2643 c-18 -30 -26 -49 -17 -42 16 13 58 89 52 94 -2 1 -18 -22
-35 -52z"/>
<path d="M1575 2600 c17 -4 41 -8 55 -8 l25 0 -25 8 c-14 4 -38 8 -55 8 l-30
0 30 -8z"/>
<path d="M4867 2541 c-3 -11 -1 -18 4 -15 15 9 21 -23 9 -46 -8 -15 -8 -20 -1
-16 6 4 11 3 11 -2 0 -6 7 -12 14 -15 10 -4 13 -1 9 9 -3 7 -9 14 -15 14 -5 0
-7 9 -3 20 3 10 0 31 -8 46 -13 26 -14 26 -20 5z"/>
<path d="M4953 2505 c5 -15 44 -18 44 -3 0 7 -11 13 -24 13 -12 0 -22 -4 -20
-10z"/>
<path d="M1564 2461 c31 -34 67 -43 131 -33 33 5 66 7 75 4 8 -3 41 -28 73
-56 32 -27 79 -63 104 -80 36 -24 49 -39 55 -66 9 -44 4 -60 -20 -60 -39 0
-113 -87 -112 -132 0 -7 9 5 19 27 22 49 74 95 106 95 24 0 35 -17 35 -52 0
-12 3 -19 6 -15 3 3 1 36 -5 73 -6 38 -9 70 -7 71 2 2 42 -19 89 -46 209 -121
497 -238 752 -307 112 -30 157 -30 203 -2 l35 22 -7 -35 c-4 -19 -9 -77 -11
-129 l-4 -95 14 95 c8 52 17 115 21 139 4 34 14 53 42 78 20 18 41 33 47 33
13 0 90 -59 177 -134 60 -52 133 -138 192 -225 38 -56 50 -59 16 -3 -55 90
-150 196 -250 277 -40 33 -84 69 -98 81 l-25 20 104 79 c135 102 220 171 294
241 l60 57 -55 -45 c-75 -62 -253 -203 -324 -258 -32 -25 -101 -80 -154 -122
-53 -42 -108 -79 -123 -82 -76 -15 -464 114 -726 242 -216 105 -323 171 -440
270 -86 73 -109 90 -100 76 4 -7 -7 -14 -31 -18 -67 -11 -109 -7 -135 14 -32
25 -45 26 -23 1z"/>
<path d="M4279 2452 c-1 -4 -1 -10 0 -14 0 -5 -3 -8 -9 -8 -5 0 -10 -9 -10
-19 0 -14 6 -19 20 -16 12 2 20 -2 20 -9 0 -8 -10 -12 -26 -10 -26 2 -26 1
-21 -42 3 -28 12 -51 23 -59 18 -14 18 -14 -1 -15 l-20 -1 20 -9 c17 -7 17 -9
3 -9 -20 -1 -25 -21 -6 -21 7 0 4 -6 -5 -12 -9 -7 -18 -22 -19 -33 -9 -66 45
-361 91 -502 35 -107 98 -243 112 -243 13 0 83 152 98 212 16 67 14 133 -8
239 -22 106 -75 273 -97 306 -7 12 -14 31 -14 43 0 15 -7 20 -25 20 -18 0 -23
4 -19 15 5 11 2 13 -12 8 -12 -4 -15 -3 -10 5 4 8 2 10 -7 6 -10 -3 -14 3 -15
23 -1 75 -21 136 -46 146 -9 4 -17 3 -17 -1z m52 -145 c-10 -9 -11 -8 -5 6 3
10 9 15 12 12 3 -3 0 -11 -7 -18z"/>
<path d="M30 2096 c0 -8 7 -16 15 -20 13 -4 14 -2 5 14 -13 23 -20 26 -20 6z"/>
<path d="M217 2063 c-2 -5 -7 -21 -11 -38 -4 -16 -13 -33 -19 -37 -6 -4 -8
-10 -4 -14 10 -11 17 -1 32 50 13 41 13 59 2 39z"/>
<path d="M1982 2040 c0 -14 2 -19 5 -12 2 6 2 18 0 25 -3 6 -5 1 -5 -13z"/>
<path d="M2042 2000 c0 -19 2 -27 5 -17 2 9 2 25 0 35 -3 9 -5 1 -5 -18z"/>
<path d="M156 1975 c-8 -23 -8 -25 7 -22 8 1 11 -9 10 -28 -2 -25 0 -27 8 -12
8 14 7 27 -4 48 -11 25 -16 27 -21 14z"/>
<path d="M1846 1965 c-6 -24 -8 -25 -34 -12 -35 18 -131 29 -182 21 -61 -10
-39 -18 52 -20 50 0 83 -5 86 -12 2 -6 9 -9 15 -6 7 2 21 -2 32 -10 20 -14 20
-15 -3 -101 -12 -48 -36 -114 -51 -148 l-29 -62 -1 61 c-1 75 10 159 18 145 4
-6 7 6 8 27 2 34 0 37 -27 37 -15 0 -32 -4 -36 -8 -5 -4 -1 -5 8 -2 17 7 33
-21 18 -30 -6 -4 -10 -21 -10 -38 0 -23 -3 -28 -9 -18 -6 9 -6 24 0 38 12 32
11 39 -2 26 -7 -7 -13 -40 -15 -75 -1 -38 1 -55 5 -43 6 14 10 -5 15 -60 6
-71 43 -221 52 -212 2 2 -1 28 -8 58 -10 51 -9 58 20 124 35 82 66 185 82 274
11 63 8 96 -4 46z"/>
<path d="M2051 1938 c0 -9 -3 -23 -6 -30 -5 -12 70 -118 107 -153 21 -19 -5
19 -46 69 -26 31 -42 63 -47 90 -3 22 -7 33 -8 24z"/>
<path d="M151 1924 c0 -11 3 -14 6 -6 3 7 2 16 -1 19 -3 4 -6 -2 -5 -13z"/>
<path d="M1740 1921 c23 -7 23 -8 5 -13 l-20 -5 20 1 c29 1 25 21 -5 23 l-25
2 25 -8z"/>
<path d="M116 1905 c-3 -9 -2 -14 3 -11 5 3 14 0 20 -8 9 -11 9 -15 -1 -18 -8
-3 -6 -7 6 -11 9 -4 15 -3 11 2 -3 5 -1 11 3 13 5 1 -1 13 -13 26 -19 21 -23
21 -29 7z"/>
<path d="M95 1840 c-3 -6 1 -7 9 -4 18 7 21 14 7 14 -6 0 -13 -4 -16 -10z"/>
<path d="M67 1806 c-33 -14 -61 -26 -63 -29 -3 -2 -3 -63 -2 -135 l3 -130 44
96 c25 54 55 120 68 148 24 53 28 74 16 74 -5 0 -34 -11 -66 -24z"/>
<path d="M885 1737 c-97 -37 -175 -94 -212 -157 -18 -30 -36 -61 -40 -68 -6
-10 -19 -8 -61 8 -65 25 -89 25 -127 0 -36 -24 -30 -25 18 -5 34 14 40 13 113
-16 67 -27 80 -29 101 -18 15 8 20 16 14 22 -7 7 -16 6 -26 -3 -14 -12 -14
-10 -5 16 27 71 72 125 139 163 36 21 84 44 106 51 22 7 44 16 50 21 14 14 -4
10 -70 -14z"/>
<path d="M5010 1677 c-43 -181 -216 -390 -380 -458 -30 -12 -59 -26 -64 -30
-14 -12 81 -22 149 -16 159 15 269 130 310 323 16 77 20 220 6 228 -5 3 -15
-18 -21 -47z"/>
<path d="M2230 1675 c13 -14 26 -25 28 -25 3 0 -5 11 -18 25 -13 14 -26 25
-28 25 -3 0 5 -11 18 -25z"/>
<path d="M2270 1637 c0 -5 184 -159 220 -184 49 -35 12 2 -76 73 -125 102
-144 117 -144 111z"/>
<path d="M3073 1600 c0 -25 2 -35 4 -22 2 12 2 32 0 45 -2 12 -4 2 -4 -23z"/>
<path d="M3613 1465 c1 -60 -4 -150 -9 -200 -7 -63 -7 -117 0 -180 11 -88 11
-83 18 159 3 137 3 268 -1 290 -6 29 -8 10 -8 -69z"/>
<path d="M3061 1512 c0 -25 3 -41 8 -37 5 3 17 -5 25 -17 9 -12 16 -17 16 -11
0 7 -9 20 -19 30 -11 10 -21 32 -24 48 -3 24 -4 21 -6 -13z"/>
<path d="M3500 1490 c-18 -12 -2 -12 25 0 13 6 15 9 5 9 -8 0 -22 -4 -30 -9z"/>
<path d="M334 1418 c-38 -40 -78 -84 -89 -98 l-19 -25 20 20 c50 50 167 175
163 175 -3 0 -36 -33 -75 -72z"/>
<path d="M3054 1362 c2 -52 8 -87 16 -95 10 -10 11 -8 5 8 -4 11 -11 54 -16
95 l-7 75 2 -83z"/>
<path d="M2550 1405 c13 -14 26 -25 28 -25 3 0 -5 11 -18 25 -13 14 -26 25
-28 25 -3 0 5 -11 18 -25z"/>
<path d="M655 1389 c15 -48 35 -92 41 -87 9 9 -22 102 -35 106 -10 3 -11 -2
-6 -19z"/>
<path d="M1780 1386 c0 -15 53 -157 57 -153 2 2 -8 37 -23 78 -26 72 -34 90
-34 75z"/>
<path d="M2610 1331 c0 -6 4 -13 10 -16 6 -3 7 1 4 9 -7 18 -14 21 -14 7z"/>
<path d="M2525 1309 c-18 -9 -18 -9 4 -5 13 3 34 1 47 -4 13 -5 24 -6 24 -1 0
5 -10 11 -22 15 -28 7 -28 7 -53 -5z"/>
<path d="M3137 1225 c3 -55 7 -102 9 -104 7 -8 2 103 -6 154 -6 35 -6 19 -3
-50z"/>
<path d="M3473 1280 c0 -25 2 -35 4 -22 2 12 2 32 0 45 -2 12 -4 2 -4 -23z"/>
<path d="M2621 1284 c0 -11 3 -14 6 -6 3 7 2 16 -1 19 -3 4 -6 -2 -5 -13z"/>
<path d="M194 1258 c-63 -67 -77 -96 -66 -131 l10 -32 1 33 c1 40 13 63 59
120 41 50 38 55 -4 10z"/>
<path d="M705 1270 c30 -103 205 -433 221 -417 3 3 -12 31 -34 64 -43 62 -112
197 -157 303 -29 69 -42 91 -30 50z"/>
<path d="M2623 1220 c0 -25 2 -35 4 -22 2 12 2 32 0 45 -2 12 -4 2 -4 -23z"/>
<path d="M1840 1219 c0 -4 14 -35 30 -70 17 -35 28 -53 24 -39 -7 26 -53 119
-54 109z"/>
<path d="M3993 1157 c-40 -22 -84 -88 -79 -116 3 -14 15 -91 26 -171 11 -80
23 -152 26 -161 7 -25 -86 -261 -246 -624 -28 -64 -34 -88 -20 -83 7 2 27 40
45 83 18 44 73 177 122 295 50 118 96 234 103 258 7 23 16 42 19 42 4 0 24 20
44 45 21 24 31 42 24 39 -8 -3 -24 -18 -36 -34 -28 -39 -41 -38 -41 5 0 24 9
45 31 70 36 41 28 47 -12 9 l-26 -25 -6 23 c-3 13 -8 61 -12 108 -5 75 -4 89
14 117 11 18 37 42 58 53 36 20 37 21 8 15 -16 -3 -45 -21 -62 -40 -29 -30
-33 -32 -33 -14 0 39 34 84 80 106 14 6 18 12 10 12 -8 0 -25 -5 -37 -12z"/>
<path d="M2613 1115 c0 -22 2 -30 4 -17 2 12 2 30 0 40 -3 9 -5 -1 -4 -23z"/>
<path d="M4221 1117 c28 -24 43 -54 29 -59 -4 -2 -2 -9 6 -16 12 -11 14 -7 14
22 0 27 -7 39 -29 55 -39 28 -53 27 -20 -2z"/>
<path d="M145 1070 c3 -14 8 -37 11 -52 4 -16 2 -28 -4 -28 -5 0 -42 -47 -81
-105 l-71 -106 0 -389 0 -390 505 0 c306 0 505 4 505 9 0 5 -7 41 -15 79 -8
38 -15 86 -17 106 -2 40 18 23 -258 209 -172 116 -302 230 -385 337 -49 64
-146 238 -189 340 -3 8 -4 4 -1 -10z"/>
<path d="M3154 995 c0 -49 1 -71 3 -48 2 23 2 64 0 90 -2 26 -3 8 -3 -42z"/>
<path d="M1911 1057 c-1 -13 59 -140 64 -135 3 2 -10 36 -29 74 -19 38 -35 66
-35 61z"/>
<path d="M2602 1030 c0 -19 2 -27 5 -17 2 9 2 25 0 35 -3 9 -5 1 -5 -18z"/>
<path d="M3325 978 c-51 -70 -112 -171 -76 -128 11 14 33 39 47 57 15 18 31
30 35 27 5 -3 6 1 3 9 -3 8 2 19 9 26 22 17 26 -11 27 -199 1 -182 -6 -220
-61 -342 l-34 -76 -85 -4 c-47 -2 -86 -2 -88 -2 -2 1 11 25 29 53 41 68 69
143 68 184 -1 31 -1 31 -9 -8 -14 -64 -35 -115 -77 -185 -32 -51 -45 -65 -64
-65 -20 0 -23 4 -21 25 2 18 0 21 -7 11 -5 -9 -16 -11 -27 -7 -17 6 -17 5 1
-12 12 -10 34 -25 50 -33 22 -10 32 -25 41 -59 10 -36 12 -40 13 -17 1 27 3
28 39 21 78 -14 128 -43 166 -97 20 -29 36 -47 36 -41 0 20 -68 101 -103 123
-18 11 -52 23 -76 27 -41 6 -71 25 -71 44 0 23 47 32 137 28 51 -2 87 0 79 4
-12 7 -8 23 24 91 51 105 60 157 60 336 l0 146 26 -30 c19 -23 16 -13 -15 45
-31 58 -38 79 -30 93 21 37 -2 14 -46 -45z"/>
<path d="M4272 995 c0 -16 2 -22 5 -12 2 9 2 23 0 30 -3 6 -5 -1 -5 -18z"/>
<path d="M2381 908 c-12 -40 -35 -115 -51 -166 l-30 -92 21 -38 c76 -136 126
-206 168 -235 62 -43 112 -69 119 -63 3 3 1 6 -5 6 -6 0 -42 24 -80 54 -57 44
-80 72 -136 165 l-67 111 42 141 c33 112 43 137 51 122 6 -10 13 -20 17 -23 4
-3 38 -59 75 -125 80 -142 139 -227 191 -275 l38 -35 -41 46 c-60 67 -140 194
-221 347 l-70 134 -21 -74z"/>
<path d="M2592 960 c0 -14 2 -19 5 -12 2 6 2 18 0 25 -3 6 -5 1 -5 -13z"/>
<path d="M3622 950 c0 -19 2 -27 5 -17 2 9 2 25 0 35 -3 9 -5 1 -5 -18z"/>
<path d="M4282 930 c0 -14 4 -36 8 -50 6 -20 8 -21 8 -5 0 11 -4 34 -8 50 -7
27 -8 27 -8 5z"/>
<path d="M1981 905 c0 -5 6 -19 14 -29 8 -11 15 -15 15 -10 0 6 -7 19 -15 30
-8 10 -14 15 -14 9z"/>
<path d="M3630 884 c0 -10 5 -26 10 -34 8 -11 9 -7 4 15 -8 37 -14 45 -14 19z"/>
<path d="M2035 800 c25 -49 41 -68 28 -32 -9 23 -44 82 -49 82 -2 0 7 -22 21
-50z"/>
<path d="M4281 828 c9 -7 19 -28 23 -47 5 -28 3 -32 -11 -27 -14 6 -14 3 3
-15 18 -20 19 -20 22 -3 6 40 -13 99 -33 102 -18 3 -18 3 -4 -10z"/>
<path d="M3215 811 c-3 -6 -7 -47 -9 -93 -3 -67 -2 -73 4 -33 12 77 18 135 15
135 -2 0 -6 -4 -10 -9z"/>
<path d="M3485 800 c10 -11 20 -20 23 -20 3 0 -3 9 -13 20 -10 11 -20 20 -23
20 -3 0 3 -9 13 -20z"/>
<path d="M3652 790 c0 -14 4 -36 8 -50 6 -20 8 -21 8 -5 0 11 -4 34 -8 50 -7
27 -8 27 -8 5z"/>
<path d="M1580 766 c0 -3 6 -11 13 -18 7 -7 26 -31 42 -53 16 -22 57 -74 90
-115 33 -41 87 -111 120 -155 33 -44 63 -82 66 -85 5 -5 49 -57 157 -187 23
-28 42 -54 42 -58 0 -3 -27 16 -61 43 -33 28 -91 67 -127 88 -37 22 -116 69
-177 106 -60 36 -112 64 -115 61 -7 -7 37 -39 135 -95 118 -68 220 -133 274
-177 24 -19 52 -35 63 -36 10 -1 40 -21 65 -46 26 -24 42 -37 37 -29 -21 30
-170 217 -240 300 -39 47 -126 157 -194 245 -132 172 -169 215 -182 215 -4 0
-8 -2 -8 -4z"/>
<path d="M3556 720 l42 -45 -9 -140 c-4 -77 -11 -223 -14 -325 -4 -102 -8
-191 -10 -197 -3 -7 1 -13 8 -13 9 0 13 28 15 103 2 131 22 495 28 525 4 21 6
22 34 7 28 -14 31 -14 36 0 4 9 2 30 -4 48 l-12 32 6 -38 c4 -31 2 -37 -8 -31
-35 21 -77 52 -113 84 l-40 35 41 -45z"/>
<path d="M2085 710 c9 -16 18 -30 21 -30 2 0 -2 14 -11 30 -9 17 -18 30 -21
30 -2 0 2 -13 11 -30z"/>
<path d="M3157 705 c-9 -19 -15 -35 -12 -35 7 0 37 61 33 66 -3 2 -12 -12 -21
-31z"/>
<path d="M2115 650 c9 -31 25 -50 25 -29 0 7 -8 23 -16 34 -16 19 -16 19 -9
-5z"/>
<path d="M3061 624 c0 -11 3 -14 6 -6 3 7 2 16 -1 19 -3 4 -6 -2 -5 -13z"/>
<path d="M3077 545 c-24 -50 -20 -58 4 -12 11 22 19 41 17 43 -3 2 -12 -12
-21 -31z"/>
<path d="M3037 473 c-4 -3 -7 -16 -6 -27 0 -19 1 -19 10 3 10 24 8 36 -4 24z"/>
<path d="M2798 382 c74 -70 83 -82 56 -82 -8 0 -38 -10 -65 -21 -47 -21 -52
-21 -92 -6 -34 13 -38 14 -23 2 11 -8 26 -15 34 -15 8 0 12 -6 8 -15 -4 -11 7
-9 42 9 57 29 116 46 129 37 5 -3 12 -16 15 -29 5 -17 0 -26 -21 -36 -43 -23
-218 -218 -200 -225 6 -1 26 17 46 40 57 69 174 179 184 173 5 -3 10 -20 10
-37 1 -27 3 -28 6 -8 8 39 -7 131 -20 131 -7 0 -46 34 -87 75 -41 41 -79 75
-84 75 -5 0 23 -30 62 -68z"/>
<path d="M2920 410 c0 -5 5 -10 11 -10 5 0 7 5 4 10 -3 6 -8 10 -11 10 -2 0
-4 -4 -4 -10z"/>
<path d="M2968 313 c7 -3 16 -2 19 1 4 3 -2 6 -13 5 -11 0 -14 -3 -6 -6z"/>
<path d="M3410 266 c0 -2 8 -10 18 -17 15 -13 16 -12 3 4 -13 16 -21 21 -21
13z"/>
<path d="M2664 207 c-42 -31 -119 -97 -111 -97 3 0 26 17 50 38 24 20 57 47
73 59 38 29 28 29 -12 0z"/>
<path d="M3086 123 c-10 -97 -24 -116 -82 -111 -40 3 -38 1 -64 93 -6 23 -8
14 -7 -38 l1 -67 98 1 c54 1 98 3 98 5 0 1 -5 15 -11 31 -6 15 -14 60 -18 98
l-7 70 -8 -82z"/>
<path d="M2340 171 c0 -6 4 -13 10 -16 6 -3 7 1 4 9 -7 18 -14 21 -14 7z"/>
<path d="M3495 125 c4 -11 14 -40 22 -65 9 -25 20 -49 25 -55 11 -12 -27 99
-42 122 -10 16 -11 16 -5 -2z"/>
<path d="M2485 55 c-27 -25 -53 -45 -57 -45 -3 0 -10 9 -13 21 -9 27 -16 20
-8 -9 9 -34 35 -26 88 28 61 62 56 64 -10 5z"/>
<path d="M3356 80 c3 -14 11 -32 16 -40 6 -10 7 -7 2 10 -3 14 -11 32 -16 40
-6 10 -7 7 -2 -10z"/>
<path d="M2655 19 c-4 -6 -5 -12 -2 -15 2 -3 7 2 10 11 7 17 1 20 -8 4z"/>
</g>
</svg>
